<svg version="1" xmlns="http://www.w3.org/2000/svg" width="313.333" height="313.333" viewBox="0 0 235.000000 235.000000"><path d="M120 61.9c-6.9 7-13.4 13.7-14.5 15l-1.9 2.2 2.4-.5c5.3-1.2 10.8-1.2 17.2-.2l6.8 1.2 8.1-8.2 8.1-8.1-4.1-4.4c-2.2-2.4-4.1-4.7-4.1-5 0-1.1-3.7-4.9-4.6-4.8-.5 0-6.5 5.8-13.4 12.8zM104.6 83.1c-7.8 2.5-9.8 4.2-31 25.3-19.5 19.5-21.9 22.3-24.1 28.6-6.2 17.6 1.7 37 18.4 45.3 6 2.9 7.4 3.2 16.2 3.2 9.1 0 10-.2 16.5-3.6 3.8-1.9 6.8-4.1 6.6-4.8-.1-.7.1-1 .6-.7.7.4 34.6-33 37.9-37.4 1-1.4 0-1.5-8.5-1.5-5.3 0-11-.4-12.6-.8-2.7-.8-3.7 0-17 13.1-7.7 7.7-15.2 14.5-16.5 15.2-2.5 1.3-13.1 2.2-13.1 1.1 0-.3-1.8-1.7-3.9-3-6.2-3.8-8.8-12.4-6-19.8 1.3-3.6 36.3-38.8 40.5-40.8 6.8-3.2 15.2-1.2 20 4.9 2.3 2.8 3.6 3.6 6.2 3.6 4.3 0 9.1-2.1 12.1-5.3l2.4-2.6-2.1-3.4c-8.7-14.9-26.4-21.7-42.6-16.6z"/><path d="M158.5 99.1c-11.9 12.1-17.4 15.8-22.8 15.9-4.2 0-9.4-2.5-13-6.5-5.2-5.6-11.8-5-17.9 1.7-2.7 3-2.7 3.1-1 6 4.2 7.1 13.1 14.1 21.2 16.7 5.2 1.6 13.9 1.9 19.1.5 8.3-2.1 14.4-6.5 28.9-20.9l14.1-14.1-8.1-5.7c-4.4-3.1-8.2-5.7-8.3-5.7-.1 0-5.6 5.4-12.2 12.1z"/></svg>